<svg width="181" height="46" viewBox="0 0 181 46" fill="none" xmlns="http://www.w3.org/2000/svg">
<g id="Reposit_logo (1) 1" clip-path="url(#clip0_4250_716)">
<g id="Page-1">
<g id="Reposit_logo">
<path id="Fill-1" fill-rule="evenodd" clip-rule="evenodd" d="M69.208 12.6419C70.9877 12.6419 71.9993 13.3684 71.9993 14.6229C71.9993 15.592 71.3521 16.0782 71.2707 15.9968C70.705 15.5125 70.0181 15.1881 68.9253 15.1881C65.489 15.1881 64.1535 18.7873 64.1535 23.7205V31.2833C64.1535 32.253 63.6695 32.536 62.9812 32.536H62.6982C62.0116 32.536 61.5254 32.253 61.5254 31.2833V13.2472C61.5254 13.1679 61.9299 12.9644 62.4155 12.9644C63.3051 12.9644 64.1138 13.4081 64.1138 15.5125V16.6851C64.9636 14.0155 66.6202 12.6419 69.208 12.6419Z" fill="white"/>
<path id="Fill-3" fill-rule="evenodd" clip-rule="evenodd" d="M83.8415 30.5159C87.6025 30.5159 89.2999 28.8977 90.4333 27.0775C90.5128 26.9562 91.97 27.3207 91.97 28.5752C91.97 29.9085 89.0575 32.8613 83.8415 32.8613C77.9789 32.8613 73.8936 28.7362 73.8936 22.8319C73.8936 16.9688 78.0187 12.6429 83.5983 12.6429C89.0177 12.6429 92.5752 16.4831 92.5752 22.3458V22.5887C92.5752 23.3173 92.2925 23.4783 91.4838 23.4783H76.5217C76.7244 27.5639 79.7567 30.5159 83.8415 30.5159ZM89.7861 21.2151C89.5432 17.4125 87.1977 14.9464 83.5983 14.9464C79.9594 14.9464 77.21 17.5342 76.6429 21.2151H89.7861Z" fill="white"/>
<path id="Fill-5" fill-rule="evenodd" clip-rule="evenodd" d="M99.4909 39.0876C99.4909 40.0573 99.0052 40.3414 98.3186 40.3414H98.0356C97.3489 40.3414 96.8633 40.0573 96.8633 39.0876V13.2476C96.8633 13.1675 97.2675 12.9649 97.7529 12.9649C98.6424 12.9649 99.4511 13.4086 99.4511 15.513V16.3208C101.189 13.9757 103.454 12.6421 106.65 12.6421C111.744 12.6421 115.748 16.6038 115.748 22.7094C115.748 28.7752 111.825 32.86 106.487 32.86C103.051 32.86 100.584 31.0406 99.4909 29.1396V39.0876ZM99.4511 24.0454C99.4511 27.7241 102.646 30.5552 106.285 30.5552C110.369 30.5552 113.078 27.4016 113.078 22.7511C113.078 18.222 110.247 14.9453 106.365 14.9453C103.009 14.9453 100.663 16.725 99.4511 19.5163V24.0454Z" fill="white"/>
<path id="Fill-7" fill-rule="evenodd" clip-rule="evenodd" d="M118.781 22.7097C118.781 16.8869 122.946 12.6427 128.729 12.6427C134.471 12.6427 138.636 16.9288 138.636 22.7912C138.636 28.614 134.471 32.8604 128.729 32.8604C122.946 32.8604 118.781 28.5743 118.781 22.7097ZM135.968 22.7912C135.968 18.3024 132.894 14.9457 128.729 14.9457C124.564 14.9457 121.451 18.2224 121.451 22.7097C121.451 27.1993 124.564 30.5555 128.729 30.5555C132.854 30.5555 135.968 27.2807 135.968 22.7912Z" fill="white"/>
<path id="Fill-9" fill-rule="evenodd" clip-rule="evenodd" d="M141.549 28.9367C141.549 27.8459 142.883 27.4419 142.964 27.5212C144.258 29.3012 146.361 30.6372 149.555 30.6372C152.749 30.6372 154.528 29.3428 154.528 27.4022C154.528 25.0965 152.506 24.6109 148.867 23.8425C145.875 23.1953 142.115 22.3455 142.115 18.4636C142.115 15.0273 145.027 12.6421 149.474 12.6421C154.164 12.6421 156.591 14.8655 156.591 16.3214C156.591 17.3322 155.215 17.8184 155.136 17.6966C154.043 16.0387 152.102 14.8655 149.474 14.8655C146.32 14.8655 144.621 16.1996 144.621 18.1005C144.621 20.1632 146.44 20.7287 150 21.4971C153.114 22.184 157.077 23.0338 157.077 26.9961C157.077 30.5549 154.164 32.8606 149.474 32.8606C144.338 32.8606 141.549 30.3939 141.549 28.9367Z" fill="white"/>
<path id="Fill-11" fill-rule="evenodd" clip-rule="evenodd" d="M161.363 6.57668C161.363 5.40437 161.971 4.83675 163.143 4.83675C164.276 4.83675 164.841 5.40437 164.841 6.57668C164.841 7.74899 164.236 8.31471 163.062 8.31471C161.971 8.31471 161.363 7.70732 161.363 6.57668ZM161.767 31.2841V14.219C161.767 13.248 162.253 12.9653 162.942 12.9653H163.224C163.911 12.9653 164.397 13.248 164.397 14.219V31.2841C164.397 32.2538 163.911 32.5365 163.224 32.5365H162.942C162.253 32.5365 161.767 32.2538 161.767 31.2841Z" fill="white"/>
<path id="Fill-13" fill-rule="evenodd" clip-rule="evenodd" d="M169.654 15.471C168.682 15.471 168.4 15.1087 168.4 14.4199V14.1767C168.4 13.49 168.682 13.1256 169.654 13.1256H171.432V9.76936C171.432 8.7997 171.917 8.51697 172.604 8.51697H172.889C173.576 8.51697 174.02 8.7997 174.02 9.76936V13.1256H179.156C180.126 13.1256 180.41 13.49 180.41 14.1767V14.4199C180.41 15.1087 180.126 15.471 179.156 15.471H174.02V26.4306C174.02 29.2614 174.749 30.5946 176.892 30.5946C178.226 30.5946 179.196 30.0297 179.885 29.1791C179.965 29.0998 180.775 29.464 180.775 30.4734C180.775 31.5665 179.359 32.8605 176.811 32.8605C173.051 32.8605 171.432 30.7167 171.432 26.7125V15.471H169.654Z" fill="white"/>
<path id="Fill-15" fill-rule="evenodd" clip-rule="evenodd" d="M43.4879 20.9507L27.8191 29.9956C27.1262 30.4393 24.7978 31.7047 23.2489 31.7047C21.8785 31.7047 19.7147 30.6558 18.597 29.9483L6.07635 22.7229L18.6752 15.4485C19.3689 15.0048 21.6978 13.7405 23.2475 13.7405C24.6176 13.7405 26.7815 14.7897 27.8231 15.4504C28.7709 16.0497 30.0249 15.7688 30.6274 14.826C31.2299 13.8796 30.9526 12.625 30.0076 12.0217C29.6318 11.7828 26.2469 9.67626 23.2475 9.67626C20.2487 9.67626 16.8638 11.7828 16.5652 11.9746L1.0162 20.9507C0.386891 21.3152 0 22.0094 0 22.7361C0 23.4626 0.386891 24.1322 1.0162 24.4966L16.4872 33.4222C16.863 33.6613 20.2487 35.7689 23.2489 35.7689C26.2482 35.7689 29.6323 33.6613 29.9302 33.4695L45.5197 24.472C46.4921 23.9103 46.8254 22.6674 46.264 21.6964C45.704 20.7248 44.4624 20.3926 43.4879 20.9507Z" fill="#4698CB"/>
<path id="Fill-17" fill-rule="evenodd" clip-rule="evenodd" d="M43.4882 30.6258L27.8207 39.6707C27.127 40.1144 24.7994 41.3784 23.2492 41.3784C21.878 41.3784 19.7141 40.3286 18.5973 39.6233L3.04833 30.6504C2.07515 30.0909 0.832499 30.4232 0.272995 31.3961C-0.288673 32.3679 0.0441069 33.61 1.01647 34.1717L16.4889 43.0972C16.8641 43.3364 20.2504 45.4426 23.2492 45.4426C26.2477 45.4426 29.6326 43.3364 29.9305 43.1446L45.52 34.147C46.4924 33.5854 46.8257 32.3433 46.2643 31.3714C45.7043 30.3999 44.4627 30.0676 43.4882 30.6258Z" fill="#4698CB"/>
<g id="Group-21">
<g id="Mask group">
<mask id="mask0_4250_716" style="mask-type:luminance" maskUnits="userSpaceOnUse" x="0" y="-1" width="47" height="28">
<g id="Group">
<path id="Vector" d="M0 -0.000160217H46.5368V26.1001H0V-0.000160217Z" fill="white"/>
</g>
</mask>
<g mask="url(#mask0_4250_716)">
<path id="Fill-19" fill-rule="evenodd" clip-rule="evenodd" d="M18.7176 5.77398C19.4105 5.32947 21.7388 4.06409 23.2878 4.06409C24.6581 4.06409 26.822 5.11383 27.9396 5.82133L40.4405 13.037L27.8206 20.3287C27.1274 20.7724 24.7991 22.0364 23.2488 22.0364C21.8784 22.0364 19.7146 20.9866 18.6724 20.3265C17.7238 19.7213 16.4679 20.0062 15.8681 20.9526C15.2661 21.8973 15.5429 23.1519 16.4885 23.7552C16.8645 23.9944 20.25 26.1001 23.2488 26.1001C26.2481 26.1001 29.633 23.9944 29.9317 23.8004L45.521 14.7921C46.1498 14.4298 46.5372 13.758 46.5366 13.0335C46.5366 12.3062 46.1498 11.6352 45.5202 11.2722L30.0494 2.34716C29.6736 2.10826 26.2879 -0.000160217 23.2878 -0.000160217C20.2884 -0.000160217 16.9041 2.10826 16.6062 2.30008L1.0169 11.2954C0.0453484 11.8571 -0.289055 13.1 0.271801 14.071C0.833469 15.0448 2.07423 15.3783 3.04876 14.8167L18.7176 5.77398Z" fill="#4698CB"/>
</g>
</g>
</g>
</g>
</g>
</g>
<defs>
<clipPath id="clip0_4250_716">
<rect width="181" height="45.4529" fill="white"/>
</clipPath>
</defs>
</svg>
